<svg xmlns="http://www.w3.org/2000/svg" xmlns:xlink="http://www.w3.org/1999/xlink" width="500" zoomAndPan="magnify" viewBox="0 0 375 374.999991" height="500" preserveAspectRatio="xMidYMid meet" version="1.0"><defs><clipPath id="97bfba3067"><path d="M 141.332031 125.203125 L 233.945312 125.203125 L 233.945312 208.101562 L 141.332031 208.101562 Z M 141.332031 125.203125 " clip-rule="nonzero"/></clipPath><clipPath id="e1d487d1b1"><path d="M 187.5 125.203125 C 162.003906 125.203125 141.332031 143.761719 141.332031 166.652344 C 141.332031 189.546875 162.003906 208.101562 187.5 208.101562 C 212.996094 208.101562 233.667969 189.546875 233.667969 166.652344 C 233.667969 143.761719 212.996094 125.203125 187.5 125.203125 Z M 187.5 125.203125 " clip-rule="nonzero"/></clipPath><clipPath id="39fb03616f"><path d="M 0.332031 0.203125 L 92.761719 0.203125 L 92.761719 83.101562 L 0.332031 83.101562 Z M 0.332031 0.203125 " clip-rule="nonzero"/></clipPath><clipPath id="3e9b25b2f0"><path d="M 46.5 0.203125 C 21.003906 0.203125 0.332031 18.761719 0.332031 41.652344 C 0.332031 64.546875 21.003906 83.101562 46.5 83.101562 C 71.996094 83.101562 92.667969 64.546875 92.667969 41.652344 C 92.667969 18.761719 71.996094 0.203125 46.5 0.203125 Z M 46.5 0.203125 " clip-rule="nonzero"/></clipPath><clipPath id="e3e6ae52cf"><rect x="0" width="93" y="0" height="84"/></clipPath><clipPath id="3a18f9dce0"><path d="M 39 94.6875 L 336 94.6875 L 336 280.6875 L 39 280.6875 Z M 39 94.6875 " clip-rule="nonzero"/></clipPath><clipPath id="3c818c9960"><path d="M 153.679688 171.953125 L 169.429688 171.953125 L 169.429688 187.703125 L 153.679688 187.703125 Z M 153.679688 171.953125 " clip-rule="nonzero"/></clipPath><clipPath id="a9f28ba098"><path d="M 205.441406 171.953125 L 221 171.953125 L 221 187.703125 L 205.441406 187.703125 Z M 205.441406 171.953125 " clip-rule="nonzero"/></clipPath><clipPath id="6d149d6cde"><path d="M 181 187 L 194 187 L 194 194 L 181 194 Z M 181 187 " clip-rule="nonzero"/></clipPath><clipPath id="81becb30b5"><path d="M 181.089844 187.496094 L 187.453125 181.132812 L 193.816406 187.496094 L 187.453125 193.859375 Z M 181.089844 187.496094 " clip-rule="nonzero"/></clipPath><clipPath id="fb6f20ed04"><path d="M 181.089844 187.496094 L 187.453125 181.132812 L 193.816406 187.496094 L 187.453125 193.859375 Z M 181.089844 187.496094 " clip-rule="nonzero"/></clipPath></defs><g clip-path="url(#97bfba3067)"><g clip-path="url(#e1d487d1b1)"><g transform="matrix(1, 0, 0, 1, 141, 125)"><g clip-path="url(#e3e6ae52cf)"><g clip-path="url(#39fb03616f)"><g clip-path="url(#3e9b25b2f0)"><path fill="#ffffff" d="M 0.332031 0.203125 L 92.621094 0.203125 L 92.621094 83.101562 L 0.332031 83.101562 Z M 0.332031 0.203125 " fill-opacity="1" fill-rule="nonzero"/></g></g></g></g></g></g><g clip-path="url(#3a18f9dce0)"><path fill="#0cc0df" d="M 229.910156 149.714844 C 231.320312 154.0625 232.085938 158.695312 232.085938 163.507812 C 232.085938 175.824219 227.09375 186.976562 219.015625 195.050781 C 210.945312 203.121094 199.792969 208.117188 187.472656 208.117188 C 175.15625 208.117188 164 203.121094 155.925781 195.050781 C 147.855469 186.976562 142.859375 175.824219 142.859375 163.507812 C 142.859375 158.695312 143.617188 154.054688 145.035156 149.71875 C 163.707031 159.445312 178.097656 165.9375 187.460938 186.886719 L 187.464844 186.867188 L 187.472656 186.886719 C 196.84375 165.9375 211.238281 159.445312 229.910156 149.714844 M 39.726562 94.84375 C 37.484375 128.515625 50.28125 161.445312 74.675781 184.765625 C 99.066406 208.082031 132.539062 219.386719 166.078125 215.628906 L 161.640625 221.570312 L 161.597656 221.625 L 145.648438 242.996094 L 187.472656 280.125 L 229.296875 242.996094 L 213.347656 221.625 L 213.308594 221.570312 L 208.871094 215.628906 C 242.40625 219.386719 275.875 208.082031 300.269531 184.765625 C 324.660156 161.449219 337.460938 128.519531 335.21875 94.84375 L 229.914062 149.707031 C 227.707031 145.699219 224.945312 142.046875 221.738281 138.832031 C 212.972656 130.070312 200.855469 124.644531 187.484375 124.644531 L 187.476562 163.519531 L 187.472656 124.644531 C 174.09375 124.644531 161.980469 130.070312 153.214844 138.832031 C 150.011719 142.039062 147.25 145.699219 145.039062 149.707031 Z M 39.726562 94.84375 " fill-opacity="1" fill-rule="evenodd"/></g><g clip-path="url(#3c818c9960)"><path fill="#cb6ce6" d="M 161.449219 187.492188 C 157.175781 187.492188 153.679688 183.996094 153.679688 179.722656 C 153.679688 175.449219 157.175781 171.953125 161.449219 171.953125 C 165.722656 171.953125 169.21875 175.449219 169.21875 179.722656 C 169.21875 183.996094 165.722656 187.492188 161.449219 187.492188 Z M 161.449219 187.492188 " fill-opacity="1" fill-rule="nonzero"/></g><g clip-path="url(#a9f28ba098)"><path fill="#cb6ce6" d="M 213.210938 187.492188 C 208.9375 187.492188 205.441406 183.996094 205.441406 179.722656 C 205.441406 175.449219 208.9375 171.953125 213.210938 171.953125 C 217.484375 171.953125 220.980469 175.449219 220.980469 179.722656 C 220.980469 183.996094 217.484375 187.492188 213.210938 187.492188 Z M 213.210938 187.492188 " fill-opacity="1" fill-rule="nonzero"/></g><g clip-path="url(#6d149d6cde)"><g clip-path="url(#81becb30b5)"><g clip-path="url(#fb6f20ed04)"><path fill="#171717" d="M 181.429688 187.515625 L 187.515625 193.601562 L 193.601562 187.515625 Z M 181.429688 187.515625 " fill-opacity="1" fill-rule="nonzero"/><path fill="#171717" d="M 193.742188 187.65625 L 187.65625 193.742188 C 187.554688 193.839844 187.4375 193.839844 187.355469 193.761719 L 181.269531 187.675781 C 181.210938 187.617188 181.191406 187.515625 181.230469 187.4375 C 181.230469 187.355469 181.328125 187.296875 181.410156 187.296875 L 193.582031 187.296875 C 193.660156 187.296875 193.742188 187.335938 193.78125 187.414062 C 193.800781 187.515625 193.800781 187.59375 193.742188 187.65625 Z M 187.496094 193.300781 L 193.0625 187.734375 L 181.929688 187.734375 Z M 187.496094 193.300781 " fill-opacity="1" fill-rule="nonzero"/></g></g></g></svg>